<svg width="60" height="60" viewBox="0 0 60 60" fill="none" xmlns="http://www.w3.org/2000/svg">
<rect width="60" height="60" fill="#0033A1"/>
<g clip-path="url(#clip0_1744_8988)">
<path d="M31.6667 33.932C32.8069 31.5082 33.0311 28.76 32.2987 26.1865C31.5662 23.6129 29.9257 21.3849 27.675 19.907C29.4833 18.0672 31.4417 16.244 33.5083 14.5032C31.0972 15.9223 28.8088 17.5366 26.6667 19.3295C24.3413 18.1291 21.6663 17.768 19.1012 18.3084C16.5362 18.8488 14.2414 20.2568 12.6112 22.2905C10.981 24.3242 10.1173 26.8565 10.1685 29.4523C10.2197 32.048 11.1826 34.5451 12.8917 36.5142C10.7333 41.1425 10.3917 44.855 12.2583 46.109C14.3 47.4537 18.7333 45.0117 21.425 41.0435C21.425 41.0435 17.3083 44.7147 15.05 43.8732C13.6583 43.3535 13.6583 41.2415 14.8 38.222C16.9631 39.793 19.6208 40.5496 22.2965 40.3561C24.9721 40.1626 27.4905 39.0316 29.4 37.166L29.8 37.9085C34.7167 37.5125 49.3917 37.1247 49.3917 37.1247C49.3583 36.44 39.6417 37.1 31.6667 33.932ZM11.5167 29.2212C11.5184 27.5769 11.9367 25.9592 12.7331 24.5162C13.5296 23.0732 14.6788 21.851 16.0757 20.9613C17.4726 20.0717 19.0725 19.543 20.7291 19.4237C22.3857 19.3043 24.0461 19.5981 25.5583 20.2782C20.6871 24.4964 16.6199 29.5457 13.55 35.186C12.227 33.4738 11.5122 31.3769 11.5167 29.2212ZM21.4417 39.047C19.2134 39.0512 17.0491 38.3098 15.3 36.9432C17.2667 32.5542 21.2667 26.6637 26.725 20.9052C28.7753 22.1834 30.2826 24.1599 30.9626 26.4622C31.6426 28.7645 31.4484 31.2336 30.4167 33.404C28.6939 32.6385 27.1025 31.6114 25.7 30.3597L28.6917 35.9202C27.7654 36.9071 26.6435 37.6941 25.396 38.2321C24.1485 38.7701 22.8024 39.0475 21.4417 39.047Z" fill="white"/>
</g>
<defs>
<clipPath id="clip0_1744_8988">
<rect width="40" height="33" fill="white" transform="translate(10 14)"/>
</clipPath>
</defs>
</svg>
