<svg width="60" height="60" viewBox="0 0 60 60" fill="none" xmlns="http://www.w3.org/2000/svg">
<rect width="60" height="60" fill="#0052FF"/>
<g clip-path="url(#clip0_260_299)">
<path d="M30.3527 17.6814C35.2976 17.6814 39.2203 20.7313 40.71 25.2668H50.6719C48.8672 15.5699 40.8667 9 30.4323 9C18.5829 9 9.32812 17.9947 9.32812 30.0402C9.32812 42.0857 18.3516 51 30.4323 51C40.6329 51 48.7925 44.4301 50.5989 34.6528H40.7092C39.2966 39.1891 35.3771 42.3186 30.429 42.3186C23.6016 42.3186 18.8167 37.0777 18.8167 30.0402C18.82 22.9223 23.5277 17.6814 30.3527 17.6814Z" fill="white"/>
</g>
<defs>
<clipPath id="clip0_260_299">
<rect width="42" height="42" fill="white" transform="translate(9 9)"/>
</clipPath>
</defs>
</svg>
