<svg width="60" height="60" viewBox="0 0 60 60" fill="none" xmlns="http://www.w3.org/2000/svg">
<rect width="60" height="60" fill="#125AA9"/>
<g clip-path="url(#clip0_150_673)">
<path d="M13.6198 22.5589H10.5187V25.5793H13.6198V22.5589Z" fill="#00C7FD"/>
<path d="M13.5426 38.2949V27.4065H10.5959V38.2841H13.5426V38.2949ZM33.0542 38.4024V35.7367C32.6238 35.7367 32.2596 35.7152 31.9948 35.6722C31.6858 35.6292 31.454 35.5217 31.2995 35.3713C31.145 35.2208 31.0457 35.0058 30.9905 34.7156C30.9463 34.4469 30.9243 34.0922 30.9243 33.6622V29.868H33.0542V27.4065H30.9243V23.1716H27.9777V33.6945C27.9777 34.5866 28.0549 35.339 28.2094 35.9409C28.3639 36.5321 28.6288 37.0158 28.993 37.3812C29.3572 37.7467 29.8427 38.0047 30.4277 38.1659C31.0236 38.3271 31.774 38.4024 32.668 38.4024H33.0542ZM49.9172 38.2949V22.3332H46.9706V38.2949H49.9172ZM25.1414 28.4814C24.3247 27.6215 23.177 27.1916 21.7202 27.1916C21.0139 27.1916 20.3628 27.3313 19.7889 27.6108C19.204 27.8902 18.7184 28.2772 18.3212 28.7716L18.1666 28.9758V28.7931V27.4065H15.2642V38.2841H18.1887V32.4906V32.8883C18.1887 32.8238 18.1887 32.7593 18.1887 32.6948C18.2218 31.6737 18.4757 30.9213 18.9612 30.4376C19.4799 29.9217 20.109 29.6637 20.8263 29.6637C21.6761 29.6637 22.3272 29.9217 22.7576 30.4161C23.177 30.9106 23.3977 31.6092 23.3977 32.5014V32.5336V38.2841H26.3664V32.1144C26.3774 30.5666 25.9581 29.3413 25.1414 28.4814ZM45.4477 32.8346C45.4477 32.0499 45.3042 31.319 45.0283 30.6311C44.7413 29.954 44.3441 29.352 43.8474 28.8361C43.3398 28.3202 42.7328 27.9225 42.0265 27.6323C41.3202 27.342 40.5366 27.2023 39.6869 27.2023C38.8812 27.2023 38.1197 27.3528 37.4134 27.643C36.7071 27.944 36.0891 28.3417 35.5704 28.8468C35.0517 29.352 34.6324 29.954 34.3344 30.6419C34.0254 31.3298 33.8819 32.0714 33.8819 32.8561C33.8819 33.6407 34.0254 34.3824 34.3123 35.0703C34.5993 35.7582 35.0076 36.3601 35.5152 36.8653C36.0229 37.3705 36.652 37.7789 37.3803 38.0692C38.1087 38.3701 38.9143 38.5206 39.7751 38.5206C42.2693 38.5206 43.8143 37.4135 44.7413 36.3816L42.6224 34.8123C42.181 35.3283 41.1215 36.0269 39.7972 36.0269C38.9695 36.0269 38.2853 35.8442 37.7666 35.468C37.2479 35.1025 36.8947 34.5866 36.7071 33.9524L36.674 33.8557H45.4477V32.8346ZM36.6961 31.835C36.6961 31.0396 37.6342 29.653 39.6538 29.6422C41.6733 29.6422 42.6224 31.0288 42.6224 31.8242L36.6961 31.835Z" fill="white"/>
</g>
<defs>
<clipPath id="clip0_150_673">
<rect width="40" height="17" fill="white" transform="translate(10 22)"/>
</clipPath>
</defs>
</svg>
