<svg width="60" height="60" viewBox="0 0 60 60" fill="none" xmlns="http://www.w3.org/2000/svg">
<rect width="60" height="60" fill="black"/>
<g clip-path="url(#clip0_2948_5238)">
<path d="M21.9856 35.3312C16.383 37.6919 12.7429 37.5257 11.0654 34.8325C10.4615 33.9015 10.3106 32.7045 10.6125 31.2415C10.8809 29.9115 11.4848 28.515 12.4242 27.0521C12.961 26.2541 13.6152 25.3896 14.3868 24.4586C14.89 23.8601 15.6281 23.0455 16.601 22.0148C15.8294 23.245 15.3262 24.4752 15.0913 25.7055C14.6887 27.634 15.1584 29.0803 16.5004 30.0445C17.0707 30.4768 17.8675 30.7178 18.8907 30.7677C19.914 30.8176 21.0798 30.6596 22.3882 30.2939L53.5385 22.1644L21.9856 35.3312Z" fill="white"/>
</g>
<defs>
<clipPath id="clip0_2948_5238">
<rect width="44" height="15" fill="white" transform="translate(10 22)"/>
</clipPath>
</defs>
</svg>
